<svg width="222" height="154" viewBox="0 0 222 154" fill="none" xmlns="http://www.w3.org/2000/svg">
<g opacity="0.7">
<path opacity="0.6" d="M3.09035 143.432C41.5037 164.809 89.9873 151.003 111.364 112.59C72.9511 91.2003 24.4802 105.018 3.09035 143.432Z" fill="url(#paint0_linear)"/>
<path opacity="0.6" d="M218.908 143.432C180.495 164.809 132.011 151.003 110.634 112.59C149.047 91.2003 197.531 105.018 218.908 143.432Z" fill="url(#paint1_linear)"/>
<path opacity="0.6" d="M0 96.1218C26.2104 131.418 76.0695 138.801 111.378 112.59C85.1681 77.2811 35.2964 69.9114 0 96.1218Z" fill="url(#paint2_linear)"/>
<path opacity="0.6" d="M222 96.1218C195.79 131.418 145.931 138.801 110.622 112.59C136.832 77.2811 186.704 69.9114 222 96.1218Z" fill="url(#paint3_linear)"/>
<path opacity="0.6" d="M41.3791 24.4059C36.3566 68.0815 67.6905 107.567 111.379 112.59C116.401 68.9018 85.0674 29.4284 41.3791 24.4059Z" fill="url(#paint4_linear)"/>
<path opacity="0.6" d="M180.619 24.4059C185.642 68.0815 154.308 107.567 110.62 112.59C105.61 68.9018 136.944 29.4284 180.619 24.4059Z" fill="url(#paint5_linear)"/>
<path opacity="0.7" d="M111.378 0C80.2837 31.0941 80.2837 81.4958 111.378 112.59C142.472 81.4958 142.472 31.0941 111.378 0Z" fill="url(#paint6_linear)"/>
</g>
<defs>
<linearGradient id="paint0_linear" x1="59.2573" y1="132.31" x2="43.1321" y2="98.2111" gradientUnits="userSpaceOnUse">
<stop stop-color="#02AAFD"/>
<stop offset="1" stop-color="#9ADDFE"/>
</linearGradient>
<linearGradient id="paint1_linear" x1="166.801" y1="132.31" x2="150.676" y2="98.2111" gradientUnits="userSpaceOnUse">
<stop stop-color="#02AAFD"/>
<stop offset="1" stop-color="#9ADDFE"/>
</linearGradient>
<linearGradient id="paint2_linear" x1="57.7774" y1="108.393" x2="43.5221" y2="75.3689" gradientUnits="userSpaceOnUse">
<stop stop-color="#02AAFD"/>
<stop offset="1" stop-color="#9ADDFE"/>
</linearGradient>
<linearGradient id="paint3_linear" x1="168.399" y1="108.393" x2="154.144" y2="75.3689" gradientUnits="userSpaceOnUse">
<stop stop-color="#02AAFD"/>
<stop offset="1" stop-color="#9ADDFE"/>
</linearGradient>
<linearGradient id="paint4_linear" x1="77.7111" y1="75.9403" x2="42.4764" y2="47.679" gradientUnits="userSpaceOnUse">
<stop stop-color="#02AAFD"/>
<stop offset="1" stop-color="#9ADDFE"/>
</linearGradient>
<linearGradient id="paint5_linear" x1="146.953" y1="75.9403" x2="111.719" y2="47.6802" gradientUnits="userSpaceOnUse">
<stop stop-color="#02AAFD"/>
<stop offset="1" stop-color="#9ADDFE"/>
</linearGradient>
<linearGradient id="paint6_linear" x1="112.252" y1="65.797" x2="79.7688" y2="52.4022" gradientUnits="userSpaceOnUse">
<stop stop-color="#02AAFD"/>
<stop offset="1" stop-color="#9ADDFE"/>
</linearGradient>
</defs>
</svg>
