<svg xmlns="http://www.w3.org/2000/svg" width="222" height="154" fill="none" viewBox="0 0 222 154"><g opacity=".7"><path fill="url(#paint0_linear)" d="M3.09035 143.432C41.5037 164.809 89.9873 151.003 111.364 112.59C72.9511 91.2003 24.4802 105.018 3.09035 143.432Z" opacity=".6"/><path fill="url(#paint1_linear)" d="M218.908 143.432C180.495 164.809 132.011 151.003 110.634 112.59C149.047 91.2003 197.531 105.018 218.908 143.432Z" opacity=".6"/><path fill="url(#paint2_linear)" d="M0 96.1218C26.2104 131.418 76.0695 138.801 111.378 112.59C85.1681 77.2811 35.2964 69.9114 0 96.1218Z" opacity=".6"/><path fill="url(#paint3_linear)" d="M222 96.1218C195.79 131.418 145.931 138.801 110.622 112.59C136.832 77.2811 186.704 69.9114 222 96.1218Z" opacity=".6"/><path fill="url(#paint4_linear)" d="M41.3791 24.4059C36.3566 68.0815 67.6905 107.567 111.379 112.59C116.401 68.9018 85.0674 29.4284 41.3791 24.4059Z" opacity=".6"/><path fill="url(#paint5_linear)" d="M180.619 24.4059C185.642 68.0815 154.308 107.567 110.62 112.59C105.61 68.9018 136.944 29.4284 180.619 24.4059Z" opacity=".6"/><path fill="url(#paint6_linear)" d="M111.378 0C80.2837 31.0941 80.2837 81.4958 111.378 112.59C142.472 81.4958 142.472 31.0941 111.378 0Z" opacity=".7"/></g><defs><linearGradient id="paint0_linear" x1="59.257" x2="43.132" y1="132.31" y2="98.211" gradientUnits="userSpaceOnUse"><stop stop-color="#02AAFD"/><stop offset="1" stop-color="#9ADDFE"/></linearGradient><linearGradient id="paint1_linear" x1="166.801" x2="150.676" y1="132.31" y2="98.211" gradientUnits="userSpaceOnUse"><stop stop-color="#02AAFD"/><stop offset="1" stop-color="#9ADDFE"/></linearGradient><linearGradient id="paint2_linear" x1="57.777" x2="43.522" y1="108.393" y2="75.369" gradientUnits="userSpaceOnUse"><stop stop-color="#02AAFD"/><stop offset="1" stop-color="#9ADDFE"/></linearGradient><linearGradient id="paint3_linear" x1="168.399" x2="154.144" y1="108.393" y2="75.369" gradientUnits="userSpaceOnUse"><stop stop-color="#02AAFD"/><stop offset="1" stop-color="#9ADDFE"/></linearGradient><linearGradient id="paint4_linear" x1="77.711" x2="42.476" y1="75.94" y2="47.679" gradientUnits="userSpaceOnUse"><stop stop-color="#02AAFD"/><stop offset="1" stop-color="#9ADDFE"/></linearGradient><linearGradient id="paint5_linear" x1="146.953" x2="111.719" y1="75.94" y2="47.68" gradientUnits="userSpaceOnUse"><stop stop-color="#02AAFD"/><stop offset="1" stop-color="#9ADDFE"/></linearGradient><linearGradient id="paint6_linear" x1="112.252" x2="79.769" y1="65.797" y2="52.402" gradientUnits="userSpaceOnUse"><stop stop-color="#02AAFD"/><stop offset="1" stop-color="#9ADDFE"/></linearGradient></defs></svg>